<svg width="48" height="29" viewBox="0 0 48 29" fill="none" xmlns="http://www.w3.org/2000/svg">
<path d="M27.1516 0H5.25176C2.36329 0 0 2.36084 0 5.24631V22.9264C0 25.8119 2.36329 28.1727 5.25176 28.1727H27.1516C30.0401 28.1727 32.4034 25.8119 32.4034 22.9264V5.24631C32.4034 2.30838 30.0401 0 27.1516 0Z" fill="white"/>
<path d="M44.1134 2.88553C43.7983 2.93799 43.4832 3.09538 43.2206 3.25277L35.0278 7.97445V20.1459L43.2731 24.8676C44.7961 25.7595 46.6868 25.2348 47.5796 23.7134C47.8422 23.2412 47.9997 22.7166 47.9997 22.1395V5.92839C47.9997 3.98725 46.1616 2.41336 44.1134 2.88553Z" fill="white"/>
</svg>
