<svg width="11" height="6" viewBox="0 0 11 6" fill="none" xmlns="http://www.w3.org/2000/svg">
<path d="M5.49137 5.49137C5.30811 5.49173 5.13051 5.42791 4.98939 5.31097L0.283345 1.38927C0.12317 1.25613 0.022441 1.06482 0.00331894 0.857423C-0.0158031 0.650023 0.0482477 0.44352 0.181381 0.283345C0.314514 0.123169 0.505824 0.022441 0.713224 0.00331896C0.920625 -0.0158031 1.12713 0.0482474 1.2873 0.18138L5.49137 3.69523L9.69544 0.306876C9.77567 0.241724 9.86799 0.193069 9.96708 0.16371C10.0662 0.134351 10.1701 0.124865 10.2729 0.135798C10.3756 0.146731 10.4752 0.177867 10.5659 0.227417C10.6566 0.276967 10.7366 0.343954 10.8014 0.424527C10.8732 0.505174 10.9276 0.599786 10.9612 0.702436C10.9947 0.805085 11.0067 0.91356 10.9964 1.02106C10.9861 1.12857 10.9537 1.23279 10.9013 1.32719C10.8488 1.42159 10.7774 1.50414 10.6916 1.56967L5.98551 5.35803C5.84034 5.45648 5.66636 5.50343 5.49137 5.49137Z" fill="white"/>
</svg>
