<svg width="51" height="68" viewBox="0 0 51 68"  xmlns="http://www.w3.org/2000/svg">
<g filter="url(#filter0_b)">
<path d="M17.6106 17.6437C17.6858 17.3382 17.9597 17.1231 18.2747 17.1231H28.195C29.6865 17.1231 30.9075 15.9024 30.8724 14.3816C30.8408 12.9392 29.6092 11.7656 28.1275 11.7656H18.7219C17.2291 11.7656 15.7748 12.2581 14.5918 13.1594V24.3591C15.0117 24.5034 15.4504 24.6024 15.9019 24.651L17.6106 17.6437Z" fill="#E06ABD"/>
<path d="M13.2286 23.6857C13.2286 3.829 13.2286 22.6837 13.2286 2.67839C13.2286 1.96315 12.9495 1.29059 12.4442 0.784463C10.7724 -0.887299 7.87109 0.285077 7.87109 2.67839V9.55253L10.7167 20.2051C11.1084 21.6715 12.0234 22.8911 13.2286 23.6857Z" fill="#E06ABD"/>
<path d="M19.8665 10.4001L20.8429 6.75653C21.1655 5.55394 20.4486 4.31294 19.246 3.98946C18.0256 3.6641 16.7996 4.3953 16.4789 5.58722L14.9409 11.3288C16.914 10.3002 18.4746 10.4001 19.8665 10.4001Z" fill="#E06ABD"/>
<path d="M31.6349 18.4888C29.0469 18.5058 26.606 19.5241 24.7667 21.3617L22.5689 23.5604C18.1997 27.9273 10.937 26.3175 9.39849 20.5577C5.38744 5.54455 6.38135 9.26447 5.26752 5.09731C4.94046 3.87646 3.84037 3.11121 2.68481 3.11121C0.921383 3.11121 -0.363485 4.78152 0.0927137 6.48426C2.23117 14.4642 4.50961 21.6098 4.50961 32.9327C4.50961 38.1161 8.72763 42.3341 13.9118 42.3341C18.1462 42.3341 21.8007 39.5062 22.9556 35.5965C24.1204 31.6567 24.0433 31.9145 24.0532 31.8897C24.742 30.0991 25.7798 28.5022 27.1361 27.1451L32.9015 21.3805C33.9595 20.3225 33.2361 18.4888 31.6349 18.4888Z" fill="#E06ABD"/>
</g>
<g opacity="0.55" filter="url(#filter1_b)">
<path d="M33.1071 49.4309C33.032 49.7364 32.758 49.9515 32.4431 49.9515L22.5228 49.9515C21.0313 49.9515 19.8103 51.1722 19.8453 52.693C19.8769 54.1354 21.1085 55.309 22.5902 55.309L31.9959 55.309C33.4886 55.309 34.943 54.8165 36.126 53.9152L36.126 42.7155C35.7061 42.5712 35.2674 42.4722 34.8158 42.4236L33.1071 49.4309Z" fill="#E06ABD"/>
<path d="M37.4882 43.3889C37.4882 63.2456 37.4882 44.3909 37.4882 64.3962C37.4882 65.1114 37.7673 65.784 38.2726 66.2901C39.9444 67.9619 42.8457 66.7895 42.8457 64.3962L42.8457 57.5221L40.0001 46.8694C39.6084 45.4031 38.6934 44.1835 37.4882 43.3889Z" fill="#E06ABD"/>
<path d="M30.8513 56.6744L29.8749 60.3181C29.5522 61.5206 30.2692 62.7616 31.4718 63.0851C32.6922 63.4105 33.9182 62.6793 34.2388 61.4874L35.7769 55.7458C33.8038 56.7744 32.2432 56.6744 30.8513 56.6744Z" fill="#E06ABD"/>
<path d="M19.0829 48.5858C21.6709 48.5688 24.1117 47.5505 25.9511 45.7129L28.1488 43.5142C32.5181 39.1473 39.7808 40.7571 41.3193 46.5169C45.3303 61.53 44.3364 57.8101 45.4503 61.9773C45.7773 63.1981 46.8774 63.9634 48.033 63.9634C49.7964 63.9634 51.0813 62.2931 50.6251 60.5903C48.4866 52.6104 46.2082 45.4647 46.2082 34.1419C46.2082 28.9585 41.9901 24.7405 36.8059 24.7405C32.5715 24.7405 28.9171 27.5684 27.7622 31.4781C26.5973 35.4179 26.6745 35.1601 26.6646 35.1849C25.9758 36.9755 24.9379 38.5724 23.5817 39.9295L17.8163 45.6941C16.7583 46.7521 17.4816 48.5858 19.0829 48.5858Z" fill="#E06ABD"/>
</g>
<defs>
<filter id="filter0_b" x="-302.633" y="-302.633" width="638.665" height="647.6" filterUnits="userSpaceOnUse" color-interpolation-filters="sRGB">
<feFlood flood-opacity="0" result="BackgroundImageFix"/>
<feGaussianBlur in="BackgroundImage" stdDeviation="151.316"/>
<feComposite in2="SourceAlpha" operator="in" result="effect1_backgroundBlur"/>
<feBlend in="SourceGraphic" in2="effect1_backgroundBlur" result="shape"/>
</filter>
<filter id="filter1_b" x="13.3624" y="20.7845" width="41.3116" height="50.246" filterUnits="userSpaceOnUse" color-interpolation-filters="sRGB">
<feFlood flood-opacity="0" result="BackgroundImageFix"/>
<feGaussianBlur in="BackgroundImage" stdDeviation="1.97799"/>
<feComposite in2="SourceAlpha" operator="in" result="effect1_backgroundBlur"/>
<feBlend   in="SourceGraphic" in2="effect1_backgroundBlur" result="shape"/>
</filter>
</defs>
</svg>
