<svg width="61" height="65" viewBox="0 0 61 65" fill="none" xmlns="http://www.w3.org/2000/svg">
<g opacity="0.55" filter="url(#filter0_b)">
<path d="M52.4114 21.5229V15.8202C52.4114 7.11297 45.2985 0 36.5912 0C27.884 0 20.771 7.11297 20.771 15.8202V21.5229C16.4787 21.8908 13.1675 25.4473 13.1675 29.8622V49.8521C13.1675 54.5123 16.9079 58.2528 21.5681 58.2528H51.6756C56.3358 58.2528 60.0763 54.5123 60.0763 49.8521V29.8622C60.0763 25.4473 56.7037 21.8908 52.4114 21.5229ZM40.2703 47.1541C40.393 47.7673 39.9637 48.3191 39.3506 48.3191H33.7706C33.1574 48.3191 32.7281 47.7673 32.8508 47.1541L34.6903 39.9185C33.1574 39.244 32.0536 37.711 32.0536 35.8714C32.0536 33.4187 34.0772 31.3952 36.5299 31.3952C38.9826 31.3952 41.0062 33.4187 41.0062 35.8714C41.0062 37.6497 39.9024 39.1826 38.3695 39.9185L40.2703 47.1541ZM44.3787 21.4615H28.8037V15.8815C28.8037 11.5892 32.2989 8.09407 36.5912 8.09407C40.8835 8.09407 44.3787 11.5892 44.3787 15.8815V21.4615Z" fill="#E06ABD"/>
</g>
<g filter="url(#filter1_b)">
<path d="M39.244 28.1065V22.4039C39.244 13.6966 32.131 6.58368 23.4237 6.58368C14.7165 6.58368 7.60352 13.6966 7.60352 22.4039V28.1065C3.31121 28.4745 0 32.0309 0 36.4459V56.4358C0 61.096 3.74044 64.8364 8.40066 64.8364H38.5081C43.1684 64.8364 46.9088 61.096 46.9088 56.4358V36.4459C46.9088 32.0309 43.5363 28.4745 39.244 28.1065ZM27.1029 53.7378C27.2255 54.3509 26.7963 54.9028 26.1831 54.9028H20.6031C19.9899 54.9028 19.5607 54.3509 19.6833 53.7378L21.5229 46.5021C19.9899 45.8276 18.8862 44.2947 18.8862 42.4551C18.8862 40.0024 20.9097 37.9789 23.3624 37.9789C25.8152 37.9789 27.8387 40.0024 27.8387 42.4551C27.8387 44.2334 26.7349 45.7663 25.202 46.5021L27.1029 53.7378ZM31.2112 28.0452H15.6363V22.4652C15.6363 18.1729 19.1314 14.6777 23.4237 14.6777C27.716 14.6777 31.2112 18.1729 31.2112 22.4652V28.0452Z" fill="#E06ABD"/>
</g>
<defs>
<filter id="filter0_b" x="7.90384" y="-5.26365" width="57.4361" height="68.7801" filterUnits="userSpaceOnUse" color-interpolation-filters="sRGB">
<feFlood flood-opacity="0" result="BackgroundImageFix"/>
<feGaussianBlur in="BackgroundImage" stdDeviation="2.63182"/>
<feComposite in2="SourceAlpha" operator="in" result="effect1_backgroundBlur"/>
<feBlend mode="normal" in="SourceGraphic" in2="effect1_backgroundBlur" result="shape"/>
</filter>
<filter id="filter1_b" x="-402.669" y="-396.085" width="852.246" height="863.59" filterUnits="userSpaceOnUse" color-interpolation-filters="sRGB">
<feFlood flood-opacity="0" result="BackgroundImageFix"/>
<feGaussianBlur in="BackgroundImage" stdDeviation="201.334"/>
<feComposite in2="SourceAlpha" operator="in" result="effect1_backgroundBlur"/>
<feBlend mode="normal" in="SourceGraphic" in2="effect1_backgroundBlur" result="shape"/>
</filter>
</defs>
</svg>
