<svg width="58" height="62" viewBox="0 0 58 62" fill="none" xmlns="http://www.w3.org/2000/svg">
<g filter="url(#filter0_b)">
<path fill-rule="evenodd" clip-rule="evenodd" d="M32.269 25.1992L34.7812 27.1122C35.2504 27.4748 35.3779 28.1124 35.0864 28.6314L32.4625 33.0562C32.2576 33.4221 31.851 33.6573 31.4092 33.6573C31.2554 33.6573 31.1062 33.6295 30.9627 33.5752L27.9904 32.413C27.396 32.8255 26.8106 33.1571 26.2139 33.42L25.7618 36.4918C25.6889 37.064 25.1696 37.5032 24.5558 37.5032H19.3172C18.7023 37.5032 18.1841 37.064 18.1101 36.4807L17.6591 33.42C17.043 33.1494 16.4474 32.8123 15.8803 32.4142L12.9159 33.573C12.2896 33.797 11.6838 33.5397 11.4048 33.044L8.79229 28.6425C8.49506 28.1125 8.62147 27.4748 9.0884 27.1144L11.6029 25.2004C11.5631 24.8255 11.5437 24.5006 11.5437 24.1956C11.5437 23.8906 11.563 23.5657 11.6029 23.192L9.0907 21.279C8.61352 20.9108 8.48599 20.251 8.79459 19.7431L11.4104 15.3361C11.6871 14.8414 12.3533 14.6064 12.9103 14.816L15.8826 15.9781C16.4759 15.5668 17.0624 15.2341 17.6591 14.9723L18.1112 11.8994C18.1842 11.3272 18.7023 10.888 19.3161 10.888H24.5546C25.1684 10.888 25.6877 11.3272 25.7618 11.9083L26.2127 14.9701C26.8288 15.2396 27.4245 15.5767 27.9927 15.9759L30.9571 14.8171C31.5777 14.5942 32.1892 14.8492 32.4683 15.346L35.0807 19.7476C35.3779 20.2787 35.2504 20.9164 34.7835 21.2757L32.269 23.1898C32.302 23.4848 32.3282 23.8296 32.3282 24.1945C32.3282 24.5594 32.3008 24.9042 32.269 25.1992ZM17.3801 24.1956C17.3801 26.6419 19.4231 28.6314 21.9354 28.6314C24.4476 28.6314 26.4906 26.6419 26.4906 24.1956C26.4906 21.7492 24.4476 19.7597 21.9354 19.7597C19.4231 19.7597 17.3801 21.7492 17.3801 24.1956ZM18.6584 46.3309L19.3093 43.6368C19.3843 43.3258 19.5452 43.0597 19.763 42.8552C19.6964 42.8081 19.6311 42.7585 19.567 42.7064L13.7528 37.8927L10.2142 38.7202C4.22213 40.1296 0 45.1901 0 50.9946V58.6163C0 60.1164 1.33439 61.3129 2.9313 61.3129H17.9096L20.1936 48.2932C19.1678 48.2799 18.4165 47.3326 18.6584 46.3309ZM33.3302 38.7202L29.84 37.8927L24.0318 42.7064C23.9677 42.7585 23.9048 42.8081 23.8382 42.8552C24.0572 43.0597 24.2181 43.3258 24.2943 43.6368L24.944 46.3309C25.1871 47.3314 24.4359 48.2799 23.4088 48.2944L25.6928 61.3141H40.6711C42.268 61.3141 43.4826 60.1188 43.4826 58.6175V50.9959C43.4851 45.1901 39.3222 40.1296 33.3302 38.7202Z" fill="#E06ABD"/>
</g>
<g opacity="0.55" filter="url(#filter1_b)">
<g filter="url(#filter2_b)">
<path fill-rule="evenodd" clip-rule="evenodd" d="M46.7861 14.3112L49.2983 16.2242C49.7675 16.5868 49.895 17.2244 49.6035 17.7434L46.9796 22.1682C46.7746 22.5341 46.3681 22.7693 45.9262 22.7693C45.7725 22.7693 45.6233 22.7415 45.4798 22.6872L42.5075 21.525C41.913 21.9375 41.3277 22.2691 40.731 22.532L40.2789 25.6038C40.206 26.176 39.6867 26.6152 39.0729 26.6152H33.8343C33.2194 26.6152 32.7012 26.176 32.6272 25.5927L32.1762 22.532C31.5601 22.2614 30.9645 21.9243 30.3974 21.5261L27.433 22.685C26.8067 22.909 26.2009 22.6517 25.9218 22.156L23.3094 17.7545C23.0122 17.2245 23.1386 16.5868 23.6055 16.2264L26.12 14.3124C26.0802 13.9375 26.0608 13.6126 26.0608 13.3076C26.0608 13.0026 26.0801 12.6777 26.12 12.304L23.6078 10.391C23.1306 10.0228 23.0031 9.36302 23.3117 8.8551L25.9275 4.44806C26.2042 3.95344 26.8704 3.71838 27.4274 3.92797L30.3997 5.09015C30.993 4.67876 31.5795 4.34607 32.1762 4.08433L32.6283 1.01138C32.7012 0.43915 33.2194 0 33.8332 0H39.0717C39.6855 0 40.2048 0.43915 40.2789 1.02026L40.7298 4.0821C41.3459 4.35158 41.9416 4.68869 42.5098 5.08791L45.4742 3.92906C46.0948 3.70616 46.7063 3.96124 46.9853 4.45804L49.5978 8.85957C49.895 9.39073 49.7675 10.0284 49.3006 10.3877L46.7861 12.3018C46.8191 12.5968 46.8453 12.9416 46.8453 13.3065C46.8453 13.6714 46.8179 14.0162 46.7861 14.3112ZM31.8972 13.3076C31.8972 15.7539 33.9402 17.7434 36.4524 17.7434C38.9647 17.7434 41.0077 15.7539 41.0077 13.3076C41.0077 10.8612 38.9647 8.87174 36.4524 8.87174C33.9402 8.87174 31.8972 10.8612 31.8972 13.3076ZM33.1755 35.4429L33.8264 32.7488C33.9014 32.4378 34.0623 32.1717 34.2801 31.9672C34.2135 31.9201 34.1482 31.8705 34.0841 31.8184L28.2699 27.0047L24.7313 27.8322C18.7392 29.2416 14.5171 34.3021 14.5171 40.1066V47.7283C14.5171 49.2284 15.8515 50.4249 17.4484 50.4249H32.4267L34.7107 37.4052C33.6848 37.3919 32.9336 36.4446 33.1755 35.4429ZM47.8473 27.8322L44.357 27.0047L38.5489 31.8184C38.4848 31.8705 38.4219 31.9201 38.3553 31.9672C38.5743 32.1717 38.7352 32.4378 38.8114 32.7488L39.4611 35.4429C39.7042 36.4434 38.953 37.3919 37.9259 37.4064L40.2099 50.4261H55.1882C56.7851 50.4261 57.9997 49.2308 57.9997 47.7295V40.1079C58.0022 34.3021 53.8393 29.2416 47.8473 27.8322Z" fill="#E06ABD"/>
</g>
</g>
<defs>
<filter id="filter0_b" x="-369.96" y="-359.072" width="783.403" height="790.346" filterUnits="userSpaceOnUse" color-interpolation-filters="sRGB">
<feFlood flood-opacity="0" result="BackgroundImageFix"/>
<feGaussianBlur in="BackgroundImage" stdDeviation="184.98"/>
<feComposite in2="SourceAlpha" operator="in" result="effect1_backgroundBlur"/>
<feBlend mode="normal" in="SourceGraphic" in2="effect1_backgroundBlur" result="shape"/>
</filter>
<filter id="filter1_b" x="9.68101" y="-4.83608" width="53.1548" height="60.0982" filterUnits="userSpaceOnUse" color-interpolation-filters="sRGB">
<feFlood flood-opacity="0" result="BackgroundImageFix"/>
<feGaussianBlur in="BackgroundImage" stdDeviation="2.41804"/>
<feComposite in2="SourceAlpha" operator="in" result="effect1_backgroundBlur"/>
<feBlend mode="normal" in="SourceGraphic" in2="effect1_backgroundBlur" result="shape"/>
</filter>
<filter id="filter2_b" x="-355.443" y="-369.96" width="783.403" height="790.346" filterUnits="userSpaceOnUse" color-interpolation-filters="sRGB">
<feFlood flood-opacity="0" result="BackgroundImageFix"/>
<feGaussianBlur in="BackgroundImage" stdDeviation="184.98"/>
<feComposite in2="SourceAlpha" operator="in" result="effect1_backgroundBlur"/>
<feBlend mode="normal" in="SourceGraphic" in2="effect1_backgroundBlur" result="shape"/>
</filter>
</defs>
</svg>
