<svg width="59" height="58" viewBox="0 0 59 58" fill="none" xmlns="http://www.w3.org/2000/svg">
<g filter="url(#filter0_b)">
<path fill-rule="evenodd" clip-rule="evenodd" d="M10.9614 23.6072C10.9614 24.3707 11.6697 24.9896 12.5435 24.9896C13.4172 24.9896 14.1255 24.3707 14.1255 23.6072V15.2221C14.1255 14.4586 13.4172 13.8397 12.5435 13.8397C11.6697 13.8397 10.9614 14.4586 10.9614 15.2221V23.6072ZM31.602 23.6072C31.602 24.3707 32.3103 24.9896 33.1841 24.9896C34.0579 24.9896 34.7661 24.3707 34.7661 23.6072V15.2221C34.7661 14.4586 34.0579 13.8397 33.1841 13.8397C32.3103 13.8397 31.602 14.4586 31.602 15.2221V23.6072ZM0 33.0181V52.0921C0 55.3436 3.02732 57.9889 6.74847 57.9889H38.979C42.7001 57.9889 45.7275 55.3436 45.7275 52.0921V33.0181H0ZM45.7274 23.9291V30.2533H0V23.929C0 20.6775 3.02733 18.0322 6.74847 18.0322H7.79726V23.6071C7.79726 25.8939 9.92629 27.7543 12.5434 27.7543C15.1605 27.7543 17.2895 25.8939 17.2895 23.6071V18.0322H28.438V23.6072C28.438 25.894 30.567 27.7543 33.1841 27.7543C35.8012 27.7543 37.9302 25.894 37.9302 23.6072V18.0323H38.9789C42.7 18.0323 45.7274 20.6776 45.7274 23.9291Z" fill="#E06ABD"/>
</g>
<g opacity="0.55" filter="url(#filter1_b)">
<path fill-rule="evenodd" clip-rule="evenodd" d="M23.3393 9.9607C23.3393 10.7242 24.0476 11.3431 24.9214 11.3431C25.7952 11.3431 26.5034 10.7242 26.5034 9.9607V1.57562C26.5034 0.812112 25.7952 0.193237 24.9214 0.193237C24.0476 0.193237 23.3393 0.812112 23.3393 1.57562V9.9607ZM43.98 9.9607C43.98 10.7242 44.6882 11.3431 45.562 11.3431C46.4358 11.3431 47.144 10.7242 47.144 9.9607V1.57562C47.144 0.812112 46.4358 0.193237 45.562 0.193237C44.6882 0.193237 43.98 0.812112 43.98 1.57562V9.9607ZM12.3779 19.3716V38.4456C12.3779 41.6972 15.4053 44.3424 19.1264 44.3424H51.3569C55.0781 44.3424 58.1054 41.6972 58.1054 38.4456V19.3716H12.3779ZM58.1053 10.2826V16.6068H12.3779V10.2825C12.3779 7.03102 15.4053 4.38575 19.1264 4.38575H20.1752V9.96063C20.1752 12.2474 22.3042 14.1078 24.9213 14.1078C27.5384 14.1078 29.6674 12.2474 29.6674 9.96063V4.38575H40.8159V9.96071C40.8159 12.2475 42.9449 14.1079 45.562 14.1079C48.1791 14.1079 50.3081 12.2475 50.3081 9.96071V4.38583H51.3568C55.078 4.38583 58.1053 7.0311 58.1053 10.2826Z" fill="#E06ABD"/>
</g>
<defs>
<filter id="filter0_b" x="-341.139" y="-327.299" width="728.005" height="726.427" filterUnits="userSpaceOnUse" color-interpolation-filters="sRGB">
<feFlood flood-opacity="0" result="BackgroundImageFix"/>
<feGaussianBlur in="BackgroundImage" stdDeviation="170.569"/>
<feComposite in2="SourceAlpha" operator="in" result="effect1_backgroundBlur"/>
<feBlend mode="normal" in="SourceGraphic" in2="effect1_backgroundBlur" result="shape"/>
</filter>
<filter id="filter1_b" x="7.9186" y="-4.26609" width="54.6461" height="53.0679" filterUnits="userSpaceOnUse" color-interpolation-filters="sRGB">
<feFlood flood-opacity="0" result="BackgroundImageFix"/>
<feGaussianBlur in="BackgroundImage" stdDeviation="2.22967"/>
<feComposite in2="SourceAlpha" operator="in" result="effect1_backgroundBlur"/>
<feBlend mode="normal" in="SourceGraphic" in2="effect1_backgroundBlur" result="shape"/>
</filter>
</defs>
</svg>
