<svg width="25" height="24" viewBox="0 0 25 24" fill="none" xmlns="http://www.w3.org/2000/svg">
<path fill-rule="evenodd" clip-rule="evenodd" d="M12.005 0C15.1889 0 18.2425 1.26349 20.4938 3.51251C22.7452 5.76154 24.01 8.81187 24.01 11.9925C24.01 15.1731 22.7452 18.2234 20.4938 20.4724C18.2425 22.7214 15.1889 23.9849 12.005 23.9849C8.82108 23.9849 5.76756 22.7214 3.51618 20.4724C1.26481 18.2234 0 15.1731 0 11.9925C0 8.81187 1.26481 5.76154 3.51618 3.51251C5.76756 1.26349 8.82108 0 12.005 0ZM21.0438 7.37998C19.8593 5.07929 17.8437 3.31437 15.4052 2.44277C16.2252 3.99257 16.8181 5.65306 17.1653 7.37998H21.0438ZM22.1188 12.9057C22.1483 12.6022 22.1631 12.2974 22.1631 11.9925C22.1612 11.0562 22.0288 10.1247 21.7697 9.22497H17.4442C17.5033 9.83567 17.5458 10.4501 17.5458 11.07C17.542 12.3095 17.4145 13.5456 17.1653 14.76H21.7697C21.9451 14.153 22.0615 13.533 22.1206 12.9057H22.1188ZM15.5899 12.9057L15.601 12.8116C15.664 12.2332 15.6967 11.6518 15.6989 11.07C15.6865 10.4528 15.6396 9.83689 15.5585 9.22497H8.45152C8.36974 9.83681 8.32288 10.4528 8.31116 11.07C8.31567 12.3122 8.46002 13.55 8.74149 14.76H15.2685C15.4107 14.1474 15.5179 13.5293 15.5899 12.9057ZM15.2353 7.37998C14.8001 5.42862 14.0148 3.57212 12.9174 1.90034C12.6145 1.87451 12.3116 1.84499 12.005 1.84499C11.8126 1.84593 11.6204 1.85517 11.4288 1.87267L11.0926 1.90034L11.0815 1.91879C9.98987 3.58568 9.20841 5.43574 8.77473 7.37998H15.2353ZM6.8447 7.37998C7.19897 5.65426 7.79983 3.9884 8.62883 2.43355C6.17978 3.30217 4.15459 5.07121 2.96616 7.37998H6.8447ZM2.24032 9.22497C1.98155 10.1248 1.84915 11.0562 1.84692 11.9925C1.84915 12.9287 1.98155 13.8601 2.24032 14.76H6.8447C6.5943 13.5458 6.46684 12.3096 6.46423 11.07C6.46423 10.4501 6.50671 9.83567 6.56581 9.22497H2.24032ZM7.32675 16.605H2.96801C3.66617 17.9673 4.66297 19.1547 5.88419 20.0788C7.1054 21.003 8.51958 21.64 10.0214 21.9425C8.83935 20.3211 7.92924 18.5184 7.32675 16.605ZM12.005 21.4831C13.186 20.024 14.1092 18.3743 14.7348 16.605H9.27525C9.90088 18.3742 10.824 20.024 12.005 21.4831ZM16.6833 16.605C16.0807 18.5183 15.1706 20.3211 13.9886 21.9425C15.4903 21.6398 16.9044 21.0026 18.1256 20.0785C19.3468 19.1544 20.3436 17.9671 21.042 16.605H16.6833Z" fill="white"/>
</svg>
