<svg width="50" height="50" viewBox="0 0 50 50" fill="none" xmlns="http://www.w3.org/2000/svg">
<path d="M44.6129 20.3752H25.7849C22.8144 20.3752 20.3978 22.7893 20.3978 25.7567V35.9754L15.5196 39.456C15.1347 39.7304 14.9062 40.1739 14.9062 40.6465C14.9062 41.1194 15.1347 41.5629 15.5196 41.8373L20.4566 45.3599C20.8422 47.9519 23.0849 49.9468 25.7849 49.9468H44.6129C47.5833 49.9468 49.9999 47.5327 49.9999 44.565V25.7567C49.9999 22.7893 47.5833 20.3752 44.6129 20.3752ZM38.2821 40.9368C37.9368 40.9368 37.6702 40.8275 37.592 40.5295L36.9954 38.4447H33.402L32.8061 40.5295C32.7276 40.8275 32.4609 40.9368 32.1157 40.9368C31.5664 40.9368 30.829 40.5924 30.829 40.0909C30.829 40.0592 30.8446 39.9967 30.8603 39.9339L33.8887 30.0749C34.0299 29.6047 34.6105 29.3848 35.1911 29.3848C35.7873 29.3848 36.3679 29.6047 36.509 30.0749L39.5375 39.9339C39.5531 39.9967 39.5688 40.0436 39.5688 40.0909C39.5688 40.5764 38.8314 40.9368 38.2821 40.9368Z" fill="white"/>
<path d="M33.8262 36.8459H36.5569L35.1911 32.0342L33.8262 36.8459Z" fill="white"/>
<path d="M17.4675 25.7568C17.4675 23.7921 18.1553 21.9858 19.3009 20.5618C17.6297 20.5618 16.079 20.0394 14.8007 19.1519C13.5225 20.0397 11.9718 20.5618 10.3003 20.5618C9.8444 20.5618 9.47438 20.1922 9.47438 19.7364C9.47438 19.2807 9.8444 18.9114 10.3003 18.9114C11.471 18.9114 12.5665 18.5875 13.5045 18.0266C12.3731 16.8068 11.6209 15.2319 11.4389 13.4889H10.3006C9.8444 13.4889 9.47438 13.1196 9.47438 12.6639C9.47438 12.2081 9.8444 11.8385 10.3006 11.8385H13.9753V9.83486C13.9753 9.37873 14.3449 9.00948 14.8011 9.00948C15.2574 9.00948 15.627 9.37873 15.627 9.83486V11.8385H19.3016C19.7578 11.8385 20.1279 12.2081 20.1279 12.6639C20.1279 13.1196 19.7578 13.4889 19.3016 13.4889H18.1633C17.9814 15.2319 17.2291 16.8068 16.0977 18.0266C17.0354 18.5883 18.1313 18.9114 19.3016 18.9114C19.7376 18.9114 20.0939 19.249 20.1248 19.677C21.6106 18.296 23.5999 17.4489 25.7846 17.4489H29.6023V13.9713L34.4804 10.4907C34.8649 10.2163 35.0934 9.77275 35.0934 9.30023C35.0934 8.82733 34.8649 8.38377 34.4804 8.10941L29.5435 4.58686C29.1575 1.99487 26.9148 0 24.2149 0H5.38739C2.41656 0 0 2.41404 0 5.38137V24.1899C0 27.1572 2.41656 29.5713 5.38739 29.5713H17.4675V25.7568Z" fill="white"/>
<path d="M14.8006 16.9952C15.7047 16.0581 16.3185 14.8414 16.4981 13.489H13.1035C13.2832 14.8414 13.8973 16.0581 14.8006 16.9952Z" fill="white"/>
</svg>
