<svg width="51" height="43" viewBox="0 0 51 43" fill="none" xmlns="http://www.w3.org/2000/svg">
<path d="M30.7763 7.36646C33.1344 8.84496 34.7879 11.3469 35.089 14.2511C36.0507 14.7004 37.118 14.9589 38.2497 14.9589C42.381 14.9589 45.7294 11.6104 45.7294 7.47975C45.7294 3.34845 42.381 0 38.2497 0C34.1578 0.00127293 30.8387 3.28989 30.7763 7.36646ZM25.8762 22.6811C30.0075 22.6811 33.3559 19.332 33.3559 15.2013C33.3559 11.0707 30.0068 7.72224 25.8762 7.72224C21.7455 7.72224 18.3951 11.0713 18.3951 15.202C18.3951 19.3326 21.7455 22.6811 25.8762 22.6811ZM29.0489 23.1909H22.7021C17.4213 23.1909 13.1252 27.4877 13.1252 32.7684V40.5301L13.1449 40.6517L13.6796 40.8191C18.7191 42.3937 23.0973 42.9188 26.701 42.9188C33.7397 42.9188 37.8194 40.912 38.0708 40.7841L38.5705 40.5314H38.6239V32.7684C38.6258 27.4877 34.3297 23.1909 29.0489 23.1909ZM41.4237 15.4693H35.1259C35.0578 17.9891 33.9822 20.2581 32.2809 21.89C36.9748 23.2857 40.4092 27.6385 40.4092 32.7799V35.1717C46.6275 34.9439 50.2108 33.1815 50.4469 33.0631L50.9465 32.8098H51V25.0456C51 19.7654 46.7039 15.4693 41.4237 15.4693ZM12.7516 14.9601C14.2148 14.9601 15.5762 14.5331 16.7295 13.8056C17.0961 11.4144 18.378 9.32486 20.2091 7.90172C20.2167 7.7617 20.2301 7.62295 20.2301 7.48166C20.2301 3.35036 16.881 0.00190926 12.7516 0.00190926C8.61966 0.00190926 5.27185 3.35036 5.27185 7.48166C5.27185 11.611 8.61966 14.9601 12.7516 14.9601ZM19.4689 21.89C17.7759 20.2663 16.704 18.0094 16.6258 15.5049C16.3922 15.4878 16.1611 15.4693 15.9231 15.4693H9.5769C4.29614 15.4693 0 19.7654 0 25.0456V32.8085L0.0197304 32.9282L0.554362 33.0969C4.59719 34.359 8.20532 34.9407 11.3393 35.124V32.7799C11.3405 27.6385 14.7736 23.287 19.4689 21.89Z" fill="white"/>
</svg>
